PathFileType	4	(X/Y/Z)	Patient4_TMGait_0pt5_01_right_42.trc.trc
DataRate	CameraRate	NumFrames	NumMarkers	Units	OrigDataRate	OrigDataStartFrame	OrigNumFrames
74.468085106383	74.468085106383	4	33	mm	74.468085106383	106	       141
Frame#	Time	L.ASIS			Sacral			L.Shoulder			Chest			R.Shoulder			Neck			R.ASIS			R.Thigh.Superior			R.Thigh.Lateral			R.Thigh.Inferior			R.Patella			L.Thigh.Superior			L.Thigh.Lateral			L.Thigh.Inferior			L.Patella			L.Shank.Superior			L.Shank.Lateral			L.Shank.Inferior			R.Shank.Superior			R.Shank.Lateral			R.Shank.Inferior			R.Heel			R.Midfoot.Superior			R.Midfoot.Lateral			R.Toe			L.Heel			L.Midfoot.Lateral			L.Midfoot.Superior			L.Toe			L.Elbow			L.Wrist			R.Elbow			R.Wrist			
		X1	Y1	Z1	X2	Y2	Z2	X3	Y3	Z3	X4	Y4	Z4	X5	Y5	Z5	X6	Y6	Z6	X7	Y7	Z7	X8	Y8	Z8	X9	Y9	Z9	X10	Y10	Z10	X11	Y11	Z11	X12	Y12	Z12	X13	Y13	Z13	X14	Y14	Z14	X15	Y15	Z15	X16	Y16	Z16	X17	Y17	Z17	X18	Y18	Z18	X19	Y19	Z19	X20	Y20	Z20	X21	Y21	Z21	X22	Y22	Z22	X23	Y23	Z23	X24	Y24	Z24	X25	Y25	Z25	X26	Y26	Z26	X27	Y27	Z27	X28	Y28	Z28	X29	Y29	Z29	X30	Y30	Z30	X31	Y31	Z31	X32	Y32	Z32	X33	Y33	Z33	

106	56.740000000000	814.452625345692	964.475752905667	251.785793815892	590.980873403121	1011.376429313240	397.535725652534	777.498907962169	1435.831196691704	217.406239035171	871.021941632459	1366.869991249168	384.743845750535	779.839004111449	1443.313169833032	554.122780947368	771.025318515225	1500.128690569302	368.008630173928	809.588523706822	950.216497980328	527.329284982592	895.773529369932	779.987402998919	497.624326687460	852.760992832668	657.843646112558	566.891092953258	942.534825324443	620.322733451253	488.233304966446	969.023965618255	518.085504142436	509.102658590650	848.773089354957	747.137184527022	287.904410093923	755.063323328490	637.411316640352	224.513701437853	826.372364053061	555.354650824492	295.210307651212	820.011101450511	486.637571055013	306.576417744119	794.189596183878	415.881976077056	297.123177181738	705.485189396837	301.680658332971	246.135205347396	751.135831612793	192.350319423087	322.575571254628	918.261801587371	431.723546476794	515.289972361062	820.275786920484	350.801764943730	573.619947467248	846.428495597343	244.896538056068	523.853200850476	682.336720564883	113.484003008068	489.550251886118	857.993132890526	125.109710369225	542.036826507763	753.999949298635	89.160740534076	571.847757335210	954.936529423152	47.263765236190	583.741319621098	619.821334560281	37.284553675416	365.783228362366	692.935707088490	34.176707398410	283.835867576739	775.833432759242	96.363422896206	309.643711225580	904.244433572628	46.240668676399	280.180372195377	788.896930285716	1090.090242530793	77.606464568333	1002.933095320061	940.124679007754	56.927931768143	722.832545674003	1099.653435490705	669.928250878522	770.132516105212	842.902110095123	689.211850119932	
107	56.753428571429	815.550968737608	964.362952894472	251.684855031945	591.303389673924	1011.468350813395	396.919809422453	779.224001400258	1435.947869981791	217.811108646565	871.960976408976	1366.488781474007	385.400836954560	780.233478752938	1442.794559586551	554.541639214484	772.149744421755	1500.022942444317	368.479517687743	809.351577393630	950.137036553948	527.424080597075	894.955697273892	779.672480738206	498.316328146089	851.048063556271	657.766325225669	567.858370686452	940.618775871120	619.958189451904	489.307525112428	968.313776940498	520.308847273816	509.997015484830	847.321245488620	746.098112713531	288.232477224287	752.617346875691	637.101846764787	224.442823152528	822.772598608775	554.384993121074	295.344246177272	815.689885229472	485.830300105466	306.680916622432	789.570895816219	415.301243039261	297.254530742794	700.314162507538	301.594492787139	246.136144851770	745.170111035624	192.016075217552	322.652516757739	922.476769640284	432.902592337157	516.465502604557	830.160983384865	346.146269482343	575.426827079843	862.865741544338	242.020059677758	525.532335517369	707.660376159338	99.915195700761	491.881509484001	882.288827406737	123.251279367900	543.683809251038	781.135900692832	80.445971819475	573.991271208440	984.393110741730	52.239986089783	584.991637784235	613.127638278474	37.334530659864	365.755349512758	686.208074197956	34.191925397411	283.855412221829	769.202750156309	96.255148043876	309.727623913995	897.585548878786	45.913493035619	280.197146133049	792.949337633513	1091.257975929245	76.378779764194	1012.464773569111	949.779354917342	56.641344718007	714.307400234936	1101.645044393669	671.162587964469	746.449100300604	843.052412445895	695.910839231276	
108	56.766857142857	816.716903565265	964.149635522148	251.739914679104	591.776085362457	1011.482354230718	396.557651014251	780.921592324941	1435.938300974251	218.321946387111	873.005014221249	1366.027571518255	386.098263510657	780.867120944494	1442.261939851950	555.042376312671	773.378571167010	1499.819763358448	369.029572830238	809.280636569983	949.891046014914	527.663720238877	893.890407362106	778.825156846978	499.227822306474	848.857122272957	657.316335672460	569.010968024844	938.180014949398	619.075209357435	490.516843559969	966.949434801631	522.122307974994	510.866824243793	845.981066435744	745.031895304527	288.641556619474	750.235664008556	636.777065550943	224.494470440943	819.275193742469	553.394567172845	295.524219422004	811.488528512782	485.011350621832	306.833772629969	785.044772529419	414.713094479950	297.437793696162	695.206801215550	301.536756530499	246.176373547339	739.248369164098	191.681370657231	322.736571023751	926.128364511216	434.005896853192	517.655525086270	839.890537204517	341.770483901880	577.301534085032	879.000042254287	239.835072248613	527.183855642966	733.329348436546	87.670475232236	494.211083005040	906.249050209945	122.467092135024	545.235527903959	808.362335831305	73.021479454612	576.009290068767	1013.042768658177	58.488719639354	585.984447331441	606.442523081304	37.411066883182	365.720336494652	679.486094254390	34.217922542780	283.876799025844	762.590291565382	96.141943741820	309.810525189728	890.932810451420	45.554396109755	280.214205404872	796.975311449911	1092.263903775282	75.404785964052	1021.422526174016	959.182017801710	56.695491153966	705.571023593426	1104.096244510663	672.570507990442	724.164225399990	844.793905456759	701.770272647649	
109	56.780285714286	817.915159823575	963.835623492613	251.986673514044	592.413071688650	1011.415198391657	396.450294228650	782.595758125884	1435.808332965262	218.940643454277	874.142592200245	1365.508253316486	386.855246979202	781.705311865693	1441.742702245934	555.628455384596	774.695256445704	1499.531400589747	369.660368819273	809.384156682679	949.501860093036	528.081283086198	892.631099709327	777.506834621936	500.349064096885	846.337576539077	656.544481784817	570.329986977656	935.374678226848	617.762146772282	491.820765917297	965.078213717917	523.548685740634	511.673251024943	844.741835898255	743.938138853810	289.144258994106	747.898190833360	636.453886717058	224.665486825094	815.849547081683	552.393962949698	295.747631309399	807.371215708470	484.189507767902	307.026627824823	780.580893597589	414.130831765245	297.661976499288	690.137059416162	301.515641795078	246.251524505730	733.356609710797	191.358200001499	322.820044714475	929.258638688513	435.056454151015	518.825078328227	849.368991902069	337.792267415574	579.180707176508	894.613893147258	238.397766468265	528.748897369389	758.873716462423	76.986307385408	496.461023851422	929.523505330434	122.750225497446	546.630310923057	835.221734038652	66.997101575659	577.810569180563	1040.475603139240	65.817277215641	586.637126294403	599.760067366857	37.519056333511	365.680508555157	672.767796900219	34.258003399450	283.898056072487	755.992015973118	96.029319453016	309.886248280091	884.279705228052	45.173121808847	280.229383090010	800.944498938248	1093.099378965530	74.705503891635	1029.777423071920	968.223460888387	57.075173902508	696.730929157486	1107.016819354788	674.116953867293	703.417373093178	847.804947199873	706.755259999432	
